# xmcd
#
# Track frame offsets:
#	150
#	24050
#	39831
#	53938
#	69085
#	84890
#	100483
#	121671
#	139323
#	161541
#	175991
#
# Disc length: 2609 seconds
#
# Revision: 2
# Processed by: cddbd v1.5.2PL0 Copyright (c) Steve Scherf et al.
# Submitted via: audiograbber 1.83.01
#
DISCID=7d0a2f0b
DTITLE=Chic - It's About Time (Limited Deluxe Edttion)
DYEAR=2018
DGENRE=R&B
TTITLE0=Nile Rodgers and Chic feat. Mura Masa, Cosha and Vic Mensa - Till The World
TTITLE0=Falls
TTITLE1=Nile Rodgers and Chic feat. Nao - Boogie All Night
TTITLE2=Nile Rodgers and Chic feat. Craig David and Stefflon Don - Sober
TTITLE3=Nile Rodgers and Chic feat. LunchMoney Lewis - Do Ya Wanna Party
TTITLE4=Nile Rodgers and Chic feat. Hailee Steinfeld - Dance With Me
TTITLE5=Nile Rodgers and Chic - I Dance My Dance
TTITLE6=Nile Rodgers and Chic feat. Philippe Saisse - State Of Mine (It's About T
TTITLE6=ime!)
TTITLE7=Nile Rodgers and Chic feat. Elton John and Emeli Sandé - Queen
TTITLE8=Nile Rodgers and Chic feat. Lady Gaga - I Want Your Love
TTITLE9=Nile Rodgers and Chic feat. Craig David and Stefflon Don - "New Jack" Sober
TTITLE9=(Teddy Riley Version)
TTITLE10=Nile Rodgers - A Message From Nile Rodgers
EXTD=Release-Date: 28.09.2018\n\nMARO\n
EXTT0=
EXTT1=
EXTT2=
EXTT3=
EXTT4=
EXTT5=
EXTT6=
EXTT7=
EXTT8=
EXTT9=
EXTT10=
PLAYORDER=
